shantell_organic--light.ufo
<glyph name="numbersign" format="2">
	<unicode hex="0023"/>
	<advance width="937"/>
	<outline>
		<contour>
			<point x="448" y="615.4910507429" type="curve" smooth="yes"/>
			<point x="448" y="456.4910507429"/>
			<point x="241" y="-11.5089492571"/>
			<point x="241" y="-221.5089492571" type="curve" smooth="yes"/>
			<point x="241" y="-236.5089492571"/>
			<point x="226" y="-250.5089492571"/>
			<point x="211" y="-249.5089492571" type="curve" smooth="yes"/>
			<point x="190" y="-248.5089492571"/>
			<point x="173" y="-232.5089492571"/>
			<point x="173" y="-203.5089492571" type="curve" smooth="yes"/>
			<point x="173" y="5.4910507429"/>
			<point x="377" y="465.4910507429"/>
			<point x="380" y="627.4910507429" type="curve" smooth="yes"/>
			<point x="380" y="643.4910507429"/>
			<point x="390" y="657.4910507429"/>
			<point x="409" y="657.4910507429" type="curve" smooth="yes"/>
			<point x="430" y="657.4910507429"/>
			<point x="448" y="638.4910507429"/>
		</contour>
		<contour>
			<point x="786" y="555.4910507429" type="curve" smooth="yes"/>
			<point x="786" y="404.4910507429"/>
			<point x="579" y="23.4910507429"/>
			<point x="579" y="-274.5089492571" type="curve" smooth="yes"/>
			<point x="579" y="-289.5089492571"/>
			<point x="564" y="-303.5089492571"/>
			<point x="549" y="-302.5089492571" type="curve" smooth="yes"/>
			<point x="528" y="-301.5089492571"/>
			<point x="511" y="-285.5089492571"/>
			<point x="511" y="-256.5089492571" type="curve" smooth="yes"/>
			<point x="511" y="24.4910507429"/>
			<point x="718" y="408.4910507429"/>
			<point x="718" y="572.4910507429" type="curve" smooth="yes"/>
			<point x="718" y="588.4910507429"/>
			<point x="726" y="603.4910507429"/>
			<point x="745" y="604.4910507429" type="curve" smooth="yes"/>
			<point x="765" y="605.4910507429"/>
			<point x="786" y="588.4910507429"/>
		</contour>
		<contour>
			<point x="79" y="60.4910507429" type="curve" smooth="yes"/>
			<point x="331" y="60.4910507429"/>
			<point x="612" y="98.4910507429"/>
			<point x="851" y="98.4910507429" type="curve" smooth="yes"/>
			<point x="867" y="98.4910507429"/>
			<point x="881" y="90.4910507429"/>
			<point x="881" y="70.4910507429" type="curve" smooth="yes"/>
			<point x="881" y="51.4910507429"/>
			<point x="862" y="32.4910507429"/>
			<point x="829" y="32.4910507429" type="curve" smooth="yes"/>
			<point x="600" y="32.4910507429"/>
			<point x="307" y="-8.5089492571"/>
			<point x="92" y="-8.5089492571" type="curve" smooth="yes"/>
			<point x="60" y="-8.5089492571"/>
			<point x="45" y="14.4910507429"/>
			<point x="46" y="33.4910507429" type="curve" smooth="yes"/>
			<point x="47" y="51.4910507429"/>
			<point x="60" y="60.4910507429"/>
		</contour>
		<contour>
			<point x="258" y="403.4910507429"/>
			<point x="351" y="367.4910507429"/>
			<point x="855" y="367.4910507429" type="curve" smooth="yes"/>
			<point x="877" y="367.4910507429"/>
			<point x="890" y="361.4910507429"/>
			<point x="891" y="343.4910507429" type="curve" smooth="yes"/>
			<point x="892" y="319.4910507429"/>
			<point x="872" y="302.4910507429"/>
			<point x="839" y="302.4910507429" type="curve" smooth="yes"/>
			<point x="615" y="302.4910507429"/>
			<point x="416" y="306.4910507429"/>
			<point x="206" y="333.4910507429" type="curve" smooth="yes"/>
			<point x="167" y="338.4910507429"/>
			<point x="156" y="355.4910507429"/>
			<point x="156" y="374.4910507429" type="curve" smooth="yes"/>
			<point x="156" y="393.4910507429"/>
			<point x="170" y="403.4910507429"/>
			<point x="191" y="403.4910507429" type="curve" smooth="yes"/>
		</contour>
	</outline>
</glyph>
<glyph name="parenleft" format="2">
	<unicode hex="0028"/>
	<advance width="421"/>
	<outline>
		<contour>
			<point x="374" y="591.8947621104" type="curve" smooth="yes"/>
			<point x="263" y="445.8947621104"/>
			<point x="162" y="249.8947621104"/>
			<point x="162" y="21.8947621104" type="curve" smooth="yes"/>
			<point x="162" y="-175.1052378896"/>
			<point x="231" y="-294.1052378896"/>
			<point x="356" y="-343.1052378896" type="curve" smooth="yes"/>
			<point x="382" y="-353.1052378896"/>
			<point x="391" y="-367.1052378896"/>
			<point x="391" y="-381.1052378896" type="curve" smooth="yes"/>
			<point x="391" y="-398.9955646126"/>
			<point x="378" y="-415.1052378896"/>
			<point x="365" y="-415.1052378896" type="curve" smooth="yes"/>
			<point x="349" y="-415.1052378896"/>
			<point x="342" y="-413.1052378896"/>
			<point x="318" y="-403.1052378896" type="curve" smooth="yes"/>
			<point x="183" y="-349.1052378896"/>
			<point x="92" y="-215.1052378896"/>
			<point x="92" y="21.8947621104" type="curve" smooth="yes"/>
			<point x="92" y="265.8947621104"/>
			<point x="199" y="475.8947621104"/>
			<point x="320" y="635.8947621104" type="curve" smooth="yes"/>
			<point x="332" y="651.8947621104"/>
			<point x="343" y="656.8947621104"/>
			<point x="353" y="656.8947621104" type="curve" smooth="yes"/>
			<point x="376" y="656.8947621104"/>
			<point x="388" y="639.8947621104"/>
			<point x="388" y="621.8947621104" type="curve" smooth="yes"/>
			<point x="388" y="613.8947621104"/>
			<point x="385" y="606.8947621104"/>
		</contour>
	</outline>
</glyph>
<glyph name="asterisk" format="2">
	<unicode hex="002A"/>
	<advance width="480"/>
	<outline>
		<contour>
			<point x="247" y="950.7197232584"/>
			<point x="290" y="869.7197232584"/>
			<point x="290" y="755.7197232584" type="curve" smooth="yes"/>
			<point x="290" y="683.7197232584"/>
			<point x="275" y="580.7197232584"/>
			<point x="293" y="492.7197232584" type="curve" smooth="yes"/>
			<point x="299" y="462.7197232584"/>
			<point x="279" y="450.7197232584"/>
			<point x="261" y="450.7197232584" type="curve" smooth="yes"/>
			<point x="241" y="450.7197232584"/>
			<point x="229" y="461.7197232584"/>
			<point x="225" y="482.7197232584" type="curve" smooth="yes"/>
			<point x="208" y="569.7197232584"/>
			<point x="220" y="680.7197232584"/>
			<point x="220" y="753.7197232584" type="curve" smooth="yes"/>
			<point x="220" y="870.7197232584"/>
			<point x="180" y="886.7197232584"/>
			<point x="180" y="923.7197232584" type="curve" smooth="yes"/>
			<point x="180" y="939.7197232584"/>
			<point x="189" y="950.7197232584"/>
			<point x="207" y="950.7197232584" type="curve" smooth="yes"/>
		</contour>
		<contour>
			<point x="425" y="798.7197232584" type="curve" smooth="yes"/>
			<point x="386" y="736.7197232584"/>
			<point x="199" y="650.7197232584"/>
			<point x="124" y="560.7197232584" type="curve" smooth="yes"/>
			<point x="117" y="552.7197232584"/>
			<point x="107" y="547.7197232584"/>
			<point x="97" y="547.7197232584" type="curve" smooth="yes"/>
			<point x="78" y="547.7197232584"/>
			<point x="62" y="565.7197232584"/>
			<point x="62" y="582.7197232584" type="curve" smooth="yes"/>
			<point x="62" y="590.7197232584"/>
			<point x="65" y="598.7197232584"/>
			<point x="70" y="604.7197232584" type="curve" smooth="yes"/>
			<point x="143" y="692.7197232584"/>
			<point x="322" y="765.7197232584"/>
			<point x="373" y="847.7197232584" type="curve" smooth="yes"/>
			<point x="381" y="859.7197232584"/>
			<point x="388" y="867.7197232584"/>
			<point x="403" y="867.7197232584" type="curve" smooth="yes"/>
			<point x="423" y="867.7197232584"/>
			<point x="438" y="850.7197232584"/>
			<point x="438" y="833.7197232584" type="curve" smooth="yes"/>
			<point x="438" y="826.7197232584"/>
			<point x="436" y="817.7197232584"/>
		</contour>
		<contour>
			<point x="99" y="834.7197232584" type="curve" smooth="yes"/>
			<point x="177" y="790.7197232584"/>
			<point x="310" y="726.7197232584"/>
			<point x="426" y="637.7197232584" type="curve" smooth="yes"/>
			<point x="435" y="630.7197232584"/>
			<point x="440" y="619.7197232584"/>
			<point x="440" y="609.7197232584" type="curve" smooth="yes"/>
			<point x="440" y="588.7197232584"/>
			<point x="421" y="574.7197232584"/>
			<point x="406" y="574.7197232584" type="curve" smooth="yes"/>
			<point x="397" y="574.7197232584"/>
			<point x="390" y="577.7197232584"/>
			<point x="369" y="593.7197232584" type="curve" smooth="yes"/>
			<point x="270" y="668.7197232584"/>
			<point x="137" y="730.7197232584"/>
			<point x="58" y="777.7197232584" type="curve" smooth="yes"/>
			<point x="37" y="789.7197232584"/>
			<point x="32" y="804.7197232584"/>
			<point x="32" y="819.7197232584" type="curve" smooth="yes"/>
			<point x="32" y="834.7197232584"/>
			<point x="42" y="847.7197232584"/>
			<point x="59" y="847.7197232584" type="curve" smooth="yes"/>
			<point x="74" y="847.7197232584"/>
			<point x="80" y="845.7197232584"/>
		</contour>
	</outline>
</glyph>
<glyph name="zero" format="2">
	<unicode hex="0030"/>
	<advance width="700"/>
	<image fileName="zero.png" xScale="2.3662938837" yScale="2.3662938837" xOffset="-8471.8248343698" yOffset="-212.644631698" color="0,0,0,0.16492"/>
	<outline>
		<contour>
			<point x="285" y="476.8223938036" type="curve" smooth="yes"/>
			<point x="207.4951210248" y="416.5408212674"/>
			<point x="138" y="298.8223938036"/>
			<point x="138" y="164.8223938036" type="curve" smooth="yes"/>
			<point x="138" y="33.8223938036"/>
			<point x="187.7810650888" y="-64.1776061964"/>
			<point x="317" y="-64.1776061964" type="curve" smooth="yes"/>
			<point x="449.4273504274" y="-64.1776061964"/>
			<point x="561" y="67.8223938036"/>
			<point x="561" y="311.8223938036" type="curve" smooth="yes"/>
			<point x="561" y="456.8223938036"/>
			<point x="520.4834437086" y="562.8223938036"/>
			<point x="400" y="562.8223938036" type="curve" smooth="yes"/>
			<point x="328" y="562.8223938036"/>
			<point x="249" y="511.8223938036"/>
			<point x="195" y="432.8223938036" type="curve" smooth="yes"/>
			<point x="187" y="421.8223938036"/>
			<point x="168" y="420.8223938036"/>
			<point x="151" y="420.8223938036" type="curve" smooth="yes"/>
			<point x="139" y="420.8223938036"/>
			<point x="128" y="431.8223938036"/>
			<point x="128" y="443.8223938036" type="curve" smooth="yes"/>
			<point x="128" y="489.8223938036"/>
			<point x="265" y="627.8223938036"/>
			<point x="400" y="627.8223938036" type="curve" smooth="yes"/>
			<point x="558.9724770642" y="627.8223938036"/>
			<point x="628" y="507.8223938036"/>
			<point x="628" y="311.8223938036" type="curve" smooth="yes"/>
			<point x="628" y="13.8223938036"/>
			<point x="468.8837209302" y="-130.1776061964"/>
			<point x="317" y="-130.1776061964" type="curve" smooth="yes"/>
			<point x="181.4915254237" y="-130.1776061964"/>
			<point x="71" y="-41.1776061964"/>
			<point x="71" y="164.8223938036" type="curve" smooth="yes"/>
			<point x="71" y="381.8223938036"/>
			<point x="214.7156862745" y="549.8223938036"/>
			<point x="285" y="549.8223938036" type="curve" smooth="yes"/>
			<point x="302" y="549.8223938036"/>
			<point x="311" y="544.8223938036"/>
			<point x="311" y="520.8223938036" type="curve" smooth="yes"/>
			<point x="311" y="503.8223938036"/>
			<point x="303" y="490.8223938036"/>
		</contour>
	</outline>
</glyph>
<glyph name="C" format="2">
	<unicode hex="0043"/>
	<advance width="633"/>
	<image fileName="B_.png" xScale="2.611894476" yScale="2.611894476" xOffset="-677.7903116164" yOffset="-300.367864743" color="0,0,0,0.25523"/>
	<outline>
		<contour>
			<point x="311" y="140.3970894341" type="curve" smooth="yes"/>
			<point x="469" y="140.3970894341"/>
			<point x="543" y="231.3970894341"/>
			<point x="543" y="276.3970894341" type="curve" smooth="yes"/>
			<point x="543" y="294.3970894341"/>
			<point x="536" y="309.3970894341"/>
			<point x="523" y="309.3970894341" type="curve" smooth="yes"/>
			<point x="490" y="309.3970894341"/>
			<point x="470" y="205.3970894341"/>
			<point x="310" y="205.3970894341" type="curve" smooth="yes"/>
			<point x="226" y="205.3970894341"/>
			<point x="172" y="270.3970894341"/>
			<point x="172" y="388.3970894341" type="curve" smooth="yes"/>
			<point x="172" y="510.3970894341"/>
			<point x="244" y="626.3970894341"/>
			<point x="349" y="626.3970894341" type="curve" smooth="yes"/>
			<point x="410" y="626.3970894341"/>
			<point x="418" y="598.3970894341"/>
			<point x="418" y="570.3970894341" type="curve" smooth="yes"/>
			<point x="418" y="538.3970894341"/>
			<point x="411" y="510.3970894341"/>
			<point x="441" y="510.3970894341" type="curve" smooth="yes"/>
			<point x="471" y="510.3970894341"/>
			<point x="486" y="542.3970894341"/>
			<point x="486" y="575.3970894341" type="curve" smooth="yes"/>
			<point x="486" y="645.3970894341"/>
			<point x="449" y="691.3970894341"/>
			<point x="351" y="691.3970894341" type="curve" smooth="yes"/>
			<point x="205" y="691.3970894341"/>
			<point x="105" y="544.3970894341"/>
			<point x="105" y="389.3970894341" type="curve" smooth="yes"/>
			<point x="105" y="249.3970894341"/>
			<point x="162" y="140.3970894341"/>
		</contour>
	</outline>
</glyph>
<glyph name="E" format="2">
	<unicode hex="0045"/>
	<advance width="663"/>
	<outline>
		<contour>
			<point x="149" y="375.4882899355" type="curve" smooth="yes"/>
			<point x="105" y="305.4882899355"/>
			<point x="68" y="199.4882899355"/>
			<point x="68" y="99.4882899355" type="curve" smooth="yes"/>
			<point x="68" y="-74.5117100645"/>
			<point x="175" y="-200.5117100645"/>
			<point x="361" y="-200.5117100645" type="curve" smooth="yes"/>
			<point x="542" y="-200.5117100645"/>
			<point x="622" y="-147.5117100645"/>
			<point x="622" y="-112.5117100645" type="curve" smooth="yes"/>
			<point x="622" y="-96.5117100645"/>
			<point x="616" y="-84.5117100645"/>
			<point x="598" y="-84.5117100645" type="curve" smooth="yes"/>
			<point x="575" y="-84.5117100645"/>
			<point x="531" y="-135.5117100645"/>
			<point x="357" y="-135.5117100645" type="curve" smooth="yes"/>
			<point x="224" y="-135.5117100645"/>
			<point x="135" y="-40.5117100645"/>
			<point x="136" y="101.4882899355" type="curve" smooth="yes"/>
			<point x="137" y="207.4882899355"/>
			<point x="181" y="318.4882899355"/>
			<point x="244" y="408.4882899355" type="curve" smooth="yes"/>
			<point x="267" y="441.4882899355"/>
			<point x="257" y="452.4882899355"/>
			<point x="231" y="452.4882899355" type="curve" smooth="yes"/>
			<point x="199" y="452.4882899355"/>
			<point x="174" y="415.4882899355"/>
		</contour>
		<contour>
			<point x="155" y="87.4882899355" type="curve" smooth="yes"/>
			<point x="224" y="103.4882899355"/>
			<point x="357" y="120.4882899355"/>
			<point x="449" y="126.4882899355" type="curve" smooth="yes"/>
			<point x="487" y="128.4882899355"/>
			<point x="522" y="136.4882899355"/>
			<point x="522" y="166.4882899355" type="curve" smooth="yes"/>
			<point x="522" y="182.4882899355"/>
			<point x="512" y="192.4882899355"/>
			<point x="476" y="192.4882899355" type="curve" smooth="yes"/>
			<point x="414" y="191.4882899355"/>
			<point x="268" y="175.4882899355"/>
			<point x="165" y="158.4882899355" type="curve" smooth="yes"/>
			<point x="122" y="151.4882899355"/>
			<point x="98" y="136.4882899355"/>
			<point x="98" y="118.4882899355" type="curve" smooth="yes"/>
			<point x="98" y="99.4882899355"/>
			<point x="112" y="77.4882899355"/>
		</contour>
		<contour>
			<point x="128" y="422.4882899355" type="curve" smooth="yes"/>
			<point x="208" y="422.4882899355"/>
			<point x="286" y="449.4882899355"/>
			<point x="565" y="449.4882899355" type="curve" smooth="yes"/>
			<point x="598" y="449.4882899355"/>
			<point x="610" y="466.4882899355"/>
			<point x="610" y="489.4882899355" type="curve" smooth="yes"/>
			<point x="610" y="503.4882899355"/>
			<point x="600" y="514.4882899355"/>
			<point x="581" y="514.4882899355" type="curve" smooth="yes"/>
			<point x="453" y="514.4882899355"/>
			<point x="254" y="505.4882899355"/>
			<point x="114" y="482.4882899355" type="curve" smooth="yes"/>
			<point x="95" y="478.4882899355"/>
			<point x="87" y="462.4882899355"/>
			<point x="87" y="451.4882899355" type="curve" smooth="yes"/>
			<point x="87" y="433.4882899355"/>
			<point x="101" y="422.4882899355"/>
		</contour>
	</outline>
</glyph>
<glyph name="H" format="2">
	<unicode hex="0048"/>
	<advance width="716"/>
	<outline>
		<contour>
			<point x="163" y="-211.1674983522" type="curve" smooth="yes"/>
			<point x="177" y="-211.1674983522"/>
			<point x="188" y="-198.1674983522"/>
			<point x="188" y="-183.1674983522" type="curve" smooth="yes"/>
			<point x="188" y="-32.1674983522"/>
			<point x="193" y="186.8325016478"/>
			<point x="193" y="410.8325016478" type="curve" smooth="yes"/>
			<point x="193" y="477.8325016478"/>
			<point x="176" y="509.8325016478"/>
			<point x="154" y="509.8325016478" type="curve" smooth="yes"/>
			<point x="135" y="509.8325016478"/>
			<point x="126" y="498.8325016478"/>
			<point x="126" y="474.8325016478" type="curve" smooth="yes"/>
			<point x="126" y="170.8325016478"/>
			<point x="121" y="59.8325016478"/>
			<point x="121" y="-124.1674983522" type="curve" smooth="yes"/>
			<point x="121" y="-189.1674983522"/>
			<point x="143" y="-211.1674983522"/>
		</contour>
		<contour>
			<point x="585" y="-209.1674983522" type="curve" smooth="yes"/>
			<point x="597" y="-209.1674983522"/>
			<point x="609" y="-194.1674983522"/>
			<point x="603" y="-166.1674983522" type="curve" smooth="yes"/>
			<point x="590" y="-87.1674983522"/>
			<point x="585" y="-23.1674983522"/>
			<point x="584" y="33.8325016478" type="curve" smooth="yes"/>
			<point x="583" y="132.8325016478"/>
			<point x="590" y="288.8325016478"/>
			<point x="590" y="414.8325016478" type="curve" smooth="yes"/>
			<point x="590" y="472.8325016478"/>
			<point x="571" y="504.8325016478"/>
			<point x="551" y="504.8325016478" type="curve" smooth="yes"/>
			<point x="536" y="504.8325016478"/>
			<point x="523" y="493.8325016478"/>
			<point x="523" y="468.8325016478" type="curve" smooth="yes"/>
			<point x="523" y="381.8325016478"/>
			<point x="516" y="250.8325016478"/>
			<point x="516" y="111.8325016478" type="curve" smooth="yes"/>
			<point x="516" y="-132.1674983522"/>
			<point x="529" y="-209.1674983522"/>
		</contour>
		<contour>
			<point x="118" y="112.8325016478" type="curve" smooth="yes"/>
			<point x="187" y="112.8325016478"/>
			<point x="299" y="142.8325016478"/>
			<point x="610" y="142.8325016478" type="curve" smooth="yes"/>
			<point x="642" y="142.8325016478"/>
			<point x="661" y="153.8325016478"/>
			<point x="661" y="171.8325016478" type="curve" smooth="yes"/>
			<point x="661" y="184.8325016478"/>
			<point x="639" y="205.8325016478"/>
			<point x="577" y="205.8325016478" type="curve" smooth="yes"/>
			<point x="412" y="205.8325016478"/>
			<point x="260" y="192.8325016478"/>
			<point x="87" y="171.8325016478" type="curve" smooth="yes"/>
			<point x="62" y="168.8325016478"/>
			<point x="55" y="153.8325016478"/>
			<point x="55" y="142.8325016478" type="curve" smooth="yes"/>
			<point x="55" y="127.8325016478"/>
			<point x="77" y="112.8325016478"/>
		</contour>
	</outline>
</glyph>
<glyph name="J" format="2">
	<unicode hex="004A"/>
	<advance width="584"/>
	<image fileName="B_.png" xScale="2.611894476" yScale="2.611894476" xOffset="-1334.7903116164" yOffset="-291.367864743" color="0,0,0,0.25523"/>
	<outline>
		<contour>
			<point x="279" y="100.864058019" type="curve" smooth="yes"/>
			<point x="416.012987013" y="100.864058019"/>
			<point x="490" y="162.864058019"/>
			<point x="490" y="298.864058019" type="curve" smooth="yes"/>
			<point x="490" y="392.5931220584"/>
			<point x="440.5467092289" y="551.8069741777"/>
			<point x="401" y="657.864058019" type="curve" smooth="yes"/>
			<point x="387.1656020793" y="697.390909221"/>
			<point x="375.2222222222" y="711.864058019"/>
			<point x="345" y="711.864058019" type="curve" smooth="yes"/>
			<point x="319" y="711.864058019"/>
			<point x="321" y="679.864058019"/>
			<point x="333" y="650.864058019" type="curve" smooth="yes"/>
			<point x="373.583693612" y="550.8895932675"/>
			<point x="422" y="390.2635491131"/>
			<point x="422" y="304.864058019" type="curve" smooth="yes"/>
			<point x="422" y="209.864058019"/>
			<point x="386.9079754601" y="165.864058019"/>
			<point x="279" y="165.864058019" type="curve" smooth="yes"/>
			<point x="201.0148148148" y="165.864058019"/>
			<point x="167" y="201.864058019"/>
			<point x="167" y="255.864058019" type="curve" smooth="yes"/>
			<point x="167" y="299.864058019"/>
			<point x="199" y="314.864058019"/>
			<point x="199" y="340.864058019" type="curve" smooth="yes"/>
			<point x="199" y="356.864058019"/>
			<point x="191" y="363.864058019"/>
			<point x="177" y="363.864058019" type="curve" smooth="yes"/>
			<point x="146" y="363.864058019"/>
			<point x="99" y="303.864058019"/>
			<point x="99" y="243.864058019" type="curve" smooth="yes"/>
			<point x="99" y="154.5923817184"/>
			<point x="172.5960591133" y="100.864058019"/>
		</contour>
		<contour>
			<point x="115" y="669.864058019" type="curve" smooth="yes"/>
			<point x="207.1629213483" y="669.864058019"/>
			<point x="351.6547619048" y="681.864058019"/>
			<point x="501" y="681.864058019" type="curve" smooth="yes"/>
			<point x="534" y="681.864058019"/>
			<point x="551" y="692.864058019"/>
			<point x="551" y="711.864058019" type="curve" smooth="yes"/>
			<point x="551" y="740.864058019"/>
			<point x="527" y="747.864058019"/>
			<point x="505" y="747.864058019" type="curve" smooth="yes"/>
			<point x="336.5384615385" y="747.864058019"/>
			<point x="250.652173913" y="735.864058019"/>
			<point x="130" y="735.864058019" type="curve" smooth="yes"/>
			<point x="89" y="735.864058019"/>
			<point x="83" y="748.864058019"/>
			<point x="56" y="748.864058019" type="curve" smooth="yes"/>
			<point x="38" y="748.864058019"/>
			<point x="28" y="738.864058019"/>
			<point x="28" y="722.864058019" type="curve" smooth="yes"/>
			<point x="28" y="684.864058019"/>
			<point x="79" y="669.864058019"/>
		</contour>
	</outline>
</glyph>
<glyph name="L" format="2">
	<unicode hex="004C"/>
	<advance width="556"/>
	<image fileName="B_.png" xScale="2.611894476" yScale="2.611894476" xOffset="-2674.7903116164" yOffset="-300.367864743" color="0,0,0,0.25523"/>
	<outline>
		<contour>
			<point x="286" y="213.4813773501" type="curve" smooth="yes"/>
			<point x="350.6478873239" y="213.4813773501"/>
			<point x="406" y="222.4813773501"/>
			<point x="456" y="243.4813773501" type="curve" smooth="yes"/>
			<point x="473" y="250.4813773501"/>
			<point x="484" y="266.4813773501"/>
			<point x="484" y="282.4813773501" type="curve" smooth="yes"/>
			<point x="484" y="298.4813773501"/>
			<point x="474" y="308.4813773501"/>
			<point x="457" y="308.4813773501" type="curve" smooth="yes"/>
			<point x="433.1137440758" y="308.4813773501"/>
			<point x="403" y="276.4813773501"/>
			<point x="289" y="276.4813773501" type="curve" smooth="yes"/>
			<point x="207" y="276.4813773501"/>
			<point x="174" y="321.260138412"/>
			<point x="174" y="391.4813773501" type="curve" smooth="yes"/>
			<point x="174" y="496.1063773501"/>
			<point x="214" y="570.3563773501"/>
			<point x="214" y="661.4813773501" type="curve" smooth="yes"/>
			<point x="214" y="708.4813773501"/>
			<point x="200" y="727.4813773501"/>
			<point x="173" y="727.4813773501" type="curve" smooth="yes"/>
			<point x="148" y="727.4813773501"/>
			<point x="147" y="710.4813773501"/>
			<point x="147" y="675.4813773501" type="curve" smooth="yes"/>
			<point x="147" y="583.6017704705"/>
			<point x="106" y="506.0145468833"/>
			<point x="106" y="398.4813773501" type="curve" smooth="yes"/>
			<point x="106" y="278.4813773501"/>
			<point x="169.4285714286" y="213.4813773501"/>
		</contour>
	</outline>
</glyph>
<glyph name="M" format="2">
	<unicode hex="004D"/>
	<advance width="916"/>
	<image fileName="B_.png" xScale="2.611894476" yScale="2.611894476" xOffset="-3165.7903116164" yOffset="-300.367864743" color="0,0,0,0.25523"/>
	<outline>
		<contour>
			<point x="183" y="329.7844242919" type="curve" smooth="yes"/>
			<point x="191" y="231.7844242919"/>
			<point x="157" y="236.7844242919"/>
			<point x="174" y="330.7844242919" type="curve" smooth="yes"/>
			<point x="197" y="457.7844242919"/>
			<point x="232" y="514.7844242919"/>
			<point x="282" y="514.7844242919" type="curve" smooth="yes"/>
			<point x="352" y="514.7844242919"/>
			<point x="371" y="378.7844242919"/>
			<point x="406" y="159.7844242919" type="curve" smooth="yes"/>
			<point x="413" y="116.7844242919"/>
			<point x="428" y="61.7844242919"/>
			<point x="463" y="3.7844242919" type="curve" smooth="yes"/>
			<point x="479" y="-23.2155757081"/>
			<point x="418" y="-48.2155757081"/>
			<point x="446" y="-3.2155757081" type="curve" smooth="yes"/>
			<point x="527" y="115.7844242919"/>
			<point x="551" y="311.7844242919"/>
			<point x="598" y="403.7844242919" type="curve" smooth="yes"/>
			<point x="637" y="480.7844242919"/>
			<point x="664" y="510.7844242919"/>
			<point x="693" y="510.7844242919" type="curve" smooth="yes"/>
			<point x="726" y="510.7844242919"/>
			<point x="776" y="474.7844242919"/>
			<point x="785" y="304.7844242919" type="curve" smooth="yes"/>
			<point x="791" y="198.7844242919"/>
			<point x="818" y="81.7844242919"/>
			<point x="861" y="-13.2155757081" type="curve" smooth="yes"/>
			<point x="875" y="-48.2155757081"/>
			<point x="861" y="-58.2155757081"/>
			<point x="845" y="-58.2155757081" type="curve" smooth="yes"/>
			<point x="819" y="-58.2155757081"/>
			<point x="807" y="-45.2155757081"/>
			<point x="785" y="0.7844242919" type="curve" smooth="yes"/>
			<point x="754" y="65.7844242919"/>
			<point x="729" y="194.7844242919"/>
			<point x="724" y="293.7844242919" type="curve" smooth="yes"/>
			<point x="720" y="364.7844242919"/>
			<point x="707" y="400.7844242919"/>
			<point x="682" y="436.7844242919" type="curve" smooth="yes"/>
			<point x="657" y="472.7844242919"/>
			<point x="749" y="497.7844242919"/>
			<point x="691" y="434.7844242919" type="curve" smooth="yes"/>
			<point x="610" y="347.7844242919"/>
			<point x="612" y="145.7844242919"/>
			<point x="501" y="-31.2155757081" type="curve" smooth="yes"/>
			<point x="490" y="-49.2155757081"/>
			<point x="482" y="-58.2155757081"/>
			<point x="458" y="-58.2155757081" type="curve" smooth="yes"/>
			<point x="438" y="-58.2155757081"/>
			<point x="427" y="-49.2155757081"/>
			<point x="410" y="-28.2155757081" type="curve" smooth="yes"/>
			<point x="367" y="29.7844242919"/>
			<point x="344" y="136.7844242919"/>
			<point x="326" y="246.7844242919" type="curve" smooth="yes"/>
			<point x="315" y="324.7844242919"/>
			<point x="297" y="401.7844242919"/>
			<point x="269" y="452.7844242919" type="curve" smooth="yes"/>
			<point x="236" y="512.7844242919"/>
			<point x="315.6551262067" y="526.6399961922"/>
			<point x="275" y="454.7844242919" type="curve" smooth="yes"/>
			<point x="223" y="354.7844242919"/>
			<point x="190" y="181.7844242919"/>
			<point x="190" y="-25.2155757081" type="curve" smooth="yes"/>
			<point x="190" y="-49.2155757081"/>
			<point x="178" y="-61.2155757081"/>
			<point x="162" y="-61.2155757081" type="curve" smooth="yes"/>
			<point x="140.862745098" y="-61.2155757081"/>
			<point x="113" y="-45.2155757081"/>
			<point x="113" y="58.7844242919" type="curve" smooth="yes"/>
			<point x="113" y="143.7844242919"/>
			<point x="123" y="198.7844242919"/>
			<point x="123" y="256.7844242919" type="curve" smooth="yes"/>
			<point x="123" y="375.186540694"/>
			<point x="99" y="398.1600856676"/>
			<point x="99" y="423.7844242919" type="curve" smooth="yes"/>
			<point x="99" y="436.7844242919"/>
			<point x="108" y="444.7844242919"/>
			<point x="125" y="444.7844242919" type="curve" smooth="yes"/>
			<point x="156.5588235294" y="444.7844242919"/>
			<point x="177.9615320991" y="395.2845070031"/>
		</contour>
	</outline>
</glyph>
<glyph name="P" format="2">
	<unicode hex="0050"/>
	<advance width="570"/>
	<image fileName="B_.png" xScale="2.611894476" yScale="2.611894476" xOffset="-4065.7903116164" yOffset="-300.367864743" color="0,0,0,0.25523"/>
	<outline>
		<contour>
			<point x="148" y="-112.3005674885" type="curve" smooth="yes"/>
			<point x="148" y="-151.3005674885"/>
			<point x="162" y="-169.3005674885"/>
			<point x="181" y="-169.3005674885" type="curve" smooth="yes"/>
			<point x="202" y="-169.3005674885"/>
			<point x="215" y="-155.3005674885"/>
			<point x="215" y="-130.3005674885" type="curve" smooth="yes"/>
			<point x="215" y="64.6994325115"/>
			<point x="158" y="167.6994325115"/>
			<point x="158" y="286.6994325115" type="curve" smooth="yes"/>
			<point x="158" y="380.2587545454"/>
			<point x="205" y="430.6994325115"/>
			<point x="298" y="430.6994325115" type="curve" smooth="yes"/>
			<point x="368.55" y="430.6994325115"/>
			<point x="434" y="382.6994325115"/>
			<point x="434" y="286.6994325115" type="curve" smooth="yes"/>
			<point x="434" y="200.6994325115"/>
			<point x="367" y="128.6994325115"/>
			<point x="256" y="128.6994325115" type="curve" smooth="yes"/>
			<point x="197" y="128.6994325115"/>
			<point x="185" y="146.6994325115"/>
			<point x="158" y="146.6994325115" type="curve" smooth="yes"/>
			<point x="147" y="146.6994325115"/>
			<point x="139" y="138.6994325115"/>
			<point x="139" y="123.6994325115" type="curve" smooth="yes"/>
			<point x="139" y="92.6994325115"/>
			<point x="189" y="63.6994325115"/>
			<point x="259" y="63.6994325115" type="curve" smooth="yes"/>
			<point x="405" y="63.6994325115"/>
			<point x="501" y="171.6994325115"/>
			<point x="501" y="286.6994325115" type="curve" smooth="yes"/>
			<point x="501" y="419.6994325115"/>
			<point x="409.8318584071" y="495.6994325115"/>
			<point x="299" y="495.6994325115" type="curve" smooth="yes"/>
			<point x="154" y="495.6994325115"/>
			<point x="91" y="411.0630688751"/>
			<point x="91" y="286.6994325115" type="curve" smooth="yes"/>
			<point x="91" y="161.6994325115"/>
			<point x="148" y="51.6994325115"/>
		</contour>
	</outline>
</glyph>
<glyph name="V" format="2">
	<unicode hex="0056"/>
	<advance width="665"/>
	<outline>
		<contour>
			<point x="304" y="104.9025443682"/>
			<point x="318" y="98.9025443682"/>
			<point x="335" y="98.9025443682" type="curve" smooth="yes"/>
			<point x="354" y="98.9025443682"/>
			<point x="365" y="107.9025443682"/>
			<point x="378" y="158.9025443682" type="curve" smooth="yes"/>
			<point x="428.7268495874" y="356.2761045808"/>
			<point x="500.9503494771" y="457.6745720432"/>
			<point x="616" y="654.9025443682" type="curve" smooth="yes"/>
			<point x="630" y="678.9025443682"/>
			<point x="639" y="701.9025443682"/>
			<point x="639" y="723.9025443682" type="curve" smooth="yes"/>
			<point x="639" y="737.9025443682"/>
			<point x="632" y="748.9025443682"/>
			<point x="617" y="748.9025443682" type="curve" smooth="yes"/>
			<point x="600" y="748.9025443682"/>
			<point x="594" y="742.9025443682"/>
			<point x="559" y="688.9025443682" type="curve" smooth="yes"/>
			<point x="456.7193786248" y="529.4922065492"/>
			<point x="367.8427177454" y="368.7930756317"/>
			<point x="316" y="167.9025443682" type="curve"/>
			<point x="339" y="174.9025443682" type="line"/>
			<point x="240.6920543758" y="327.513926623"/>
			<point x="213.8605321665" y="492.850901014"/>
			<point x="148" y="617.9025443682" type="curve" smooth="yes"/>
			<point x="120" y="673.9025443682"/>
			<point x="98" y="695.9025443682"/>
			<point x="69" y="695.9025443682" type="curve" smooth="yes"/>
			<point x="55" y="695.9025443682"/>
			<point x="48" y="686.9025443682"/>
			<point x="48" y="673.9025443682" type="curve" smooth="yes"/>
			<point x="48" y="651.9025443682"/>
			<point x="59" y="632.9025443682"/>
			<point x="91" y="581.9025443682" type="curve" smooth="yes"/>
			<point x="139.7734535519" y="505.3786775886"/>
			<point x="182.2521132133" y="303.7602273778"/>
			<point x="266" y="167.9025443682" type="curve" smooth="yes"/>
		</contour>
	</outline>
</glyph>
<glyph name="W" format="2">
	<unicode hex="0057"/>
	<advance width="948"/>
	<image fileName="W_.png" xScale="2.149419181" yScale="2.149419181" xOffset="-6246.5221094932" yOffset="-188.078106569" color="0,0,0,0.26332"/>
	<outline>
		<contour>
			<point x="141" y="604.4493905364" type="curve" smooth="yes"/>
			<point x="138" y="641.4493905364"/>
			<point x="132" y="660.4493905364"/>
			<point x="101" y="660.4493905364" type="curve" smooth="yes"/>
			<point x="77" y="660.4493905364"/>
			<point x="68" y="642.4493905364"/>
			<point x="70" y="623.4493905364" type="curve" smooth="yes"/>
			<point x="83.9943008741" y="476.5092313581"/>
			<point x="145.0437179098" y="248.9343161512"/>
			<point x="206" y="160.4493905364" type="curve" smooth="yes"/>
			<point x="231" y="124.4493905364"/>
			<point x="251" y="117.4493905364"/>
			<point x="276" y="117.4493905364" type="curve" smooth="yes"/>
			<point x="301" y="117.4493905364"/>
			<point x="321" y="131.4493905364"/>
			<point x="325" y="155.4493905364" type="curve" smooth="yes"/>
			<point x="352.89134822" y="305.8634470087"/>
			<point x="383.1422328266" y="459.7634571392"/>
			<point x="466" y="531.4493905364" type="curve" smooth="yes"/>
			<point x="484" y="546.4493905364"/>
			<point x="434" y="552.4493905364"/>
			<point x="456" y="534.4493905364" type="curve" smooth="yes"/>
			<point x="546" y="461.4493905364"/>
			<point x="511.0122477326" y="254.9269954913"/>
			<point x="580" y="168.4493905364" type="curve" smooth="yes"/>
			<point x="620" y="118.4493905364"/>
			<point x="645" y="114.4493905364"/>
			<point x="672" y="114.4493905364" type="curve" smooth="yes"/>
			<point x="691" y="114.4493905364"/>
			<point x="707" y="124.4493905364"/>
			<point x="724" y="155.4493905364" type="curve" smooth="yes"/>
			<point x="783" y="265.4493905364"/>
			<point x="797" y="482.4493905364"/>
			<point x="852" y="591.4493905364" type="curve" smooth="yes"/>
			<point x="874" y="637.4493905364"/>
			<point x="869" y="660.4493905364"/>
			<point x="844" y="660.4493905364" type="curve" smooth="yes"/>
			<point x="821" y="660.4493905364"/>
			<point x="811" y="655.4493905364"/>
			<point x="793" y="622.4493905364" type="curve" smooth="yes"/>
			<point x="731" y="503.4493905364"/>
			<point x="722" y="272.4493905364"/>
			<point x="654" y="167.4493905364" type="curve" smooth="yes"/>
			<point x="646.7672324348" y="156.083612934"/>
			<point x="680" y="161.4493905364"/>
			<point x="667" y="174.4493905364" type="curve" smooth="yes"/>
			<point x="585" y="240.4493905364"/>
			<point x="607.0435537033" y="372.3259883772"/>
			<point x="571" y="474.4493905364" type="curve" smooth="yes"/>
			<point x="541" y="559.4493905364"/>
			<point x="512" y="591.4493905364"/>
			<point x="467" y="591.4493905364" type="curve" smooth="yes"/>
			<point x="433" y="591.4493905364"/>
			<point x="403" y="567.4493905364"/>
			<point x="377" y="537.4493905364" type="curve" smooth="yes"/>
			<point x="318.7172146286" y="470.7062008368"/>
			<point x="287.8882786253" y="339.7983245941"/>
			<point x="259" y="171.4493905364" type="curve" smooth="yes"/>
			<point x="251" y="124.4493905364"/>
			<point x="287" y="153.4493905364"/>
			<point x="274" y="172.4493905364" type="curve" smooth="yes"/>
			<point x="194.239022221" y="296.522022637"/>
			<point x="149.9966981877" y="504.48607734"/>
		</contour>
	</outline>
</glyph>
<glyph name="c" format="2">
	<unicode hex="0063"/>
	<advance width="482"/>
	<image fileName="b.png" xScale="2.580311745" yScale="2.580311745" xOffset="-593.3109110762" yOffset="-580.570142633" color="0,0,0,0.24109"/>
	<outline>
		<contour>
			<point x="434" y="224.3272843654" type="curve" smooth="yes"/>
			<point x="434" y="246.3272843654"/>
			<point x="427" y="254.3272843654"/>
			<point x="413" y="254.3272843654" type="curve" smooth="yes"/>
			<point x="384.9108280255" y="254.3272843654"/>
			<point x="391" y="186.3272843654"/>
			<point x="280" y="186.3272843654" type="curve" smooth="yes"/>
			<point x="204" y="186.3272843654"/>
			<point x="154" y="234.3272843654"/>
			<point x="154" y="311.3272843654" type="curve" smooth="yes"/>
			<point x="154" y="402.1659940428"/>
			<point x="211.7823129252" y="487.3272843654"/>
			<point x="291" y="487.3272843654" type="curve" smooth="yes"/>
			<point x="320" y="487.3272843654"/>
			<point x="321" y="474.3272843654"/>
			<point x="342" y="474.3272843654" type="curve" smooth="yes"/>
			<point x="359" y="474.3272843654"/>
			<point x="368" y="487.3272843654"/>
			<point x="368" y="504.3272843654" type="curve" smooth="yes"/>
			<point x="368" y="547.3272843654"/>
			<point x="335" y="555.3272843654"/>
			<point x="301" y="555.3272843654" type="curve" smooth="yes"/>
			<point x="184.4222222222" y="555.3272843654"/>
			<point x="86" y="451.7354476307"/>
			<point x="86" y="320.3272843654" type="curve" smooth="yes"/>
			<point x="86" y="202.3272843654"/>
			<point x="163" y="121.3272843654"/>
			<point x="282" y="121.3272843654" type="curve" smooth="yes"/>
			<point x="363" y="121.3272843654"/>
			<point x="434" y="163.3272843654"/>
		</contour>
	</outline>
</glyph>
<glyph name="d" format="2">
	<unicode hex="0064"/>
	<advance width="613"/>
	<outline>
		<contour>
			<point x="253" y="-172.3645635556" type="curve" smooth="yes"/>
			<point x="343" y="-172.3645635556"/>
			<point x="425.747329949" y="-85.7961115136"/>
			<point x="461" y="139.6354364444" type="curve"/>
			<point x="433" y="149.6354364444" type="line"/>
			<point x="410" y="-35.3645635556"/>
			<point x="477" y="-171.3645635556"/>
			<point x="537" y="-171.3645635556" type="curve" smooth="yes"/>
			<point x="556" y="-171.3645635556"/>
			<point x="570" y="-155.3645635556"/>
			<point x="570" y="-142.3645635556" type="curve" smooth="yes"/>
			<point x="570" y="-97.6328562385"/>
			<point x="487" y="-78.735992127"/>
			<point x="487" y="119.6354364444" type="curve" smooth="yes"/>
			<point x="487" y="273.1308492884"/>
			<point x="506" y="373.4932346095"/>
			<point x="506" y="548.6354364444" type="curve" smooth="yes"/>
			<point x="506" y="595.6354364444"/>
			<point x="494.95" y="621.6354364444"/>
			<point x="472" y="621.6354364444" type="curve" smooth="yes"/>
			<point x="452.6818181818" y="621.6354364444"/>
			<point x="438" y="609.292970691"/>
			<point x="438" y="568.6354364444" type="curve" smooth="yes"/>
			<point x="438" y="134.8439533314"/>
			<point x="357" y="-107.3645635556"/>
			<point x="247" y="-107.3645635556" type="curve" smooth="yes"/>
			<point x="180" y="-107.3645635556"/>
			<point x="116" y="-21.2390030175"/>
			<point x="116" y="90.6354364444" type="curve" smooth="yes"/>
			<point x="116" y="168.238085451"/>
			<point x="167" y="216.6354364444"/>
			<point x="263" y="216.6354364444" type="curve" smooth="yes"/>
			<point x="362" y="216.6354364444"/>
			<point x="361" y="162.6354364444"/>
			<point x="398" y="162.6354364444" type="curve" smooth="yes"/>
			<point x="409" y="162.6354364444"/>
			<point x="418" y="170.6354364444"/>
			<point x="418" y="182.6354364444" type="curve" smooth="yes"/>
			<point x="418" y="237.6354364444"/>
			<point x="358" y="281.6354364444"/>
			<point x="262" y="281.6354364444" type="curve" smooth="yes"/>
			<point x="135" y="281.6354364444"/>
			<point x="50" y="205.894057134"/>
			<point x="50" y="90.6354364444" type="curve" smooth="yes"/>
			<point x="50" y="-50.9097024445"/>
			<point x="134" y="-172.3645635556"/>
		</contour>
	</outline>
</glyph>
<glyph name="f" format="2">
	<unicode hex="0066"/>
	<advance width="322"/>
	<outline>
		<contour>
			<point x="143.7215189873" y="312.747281165"/>
			<point x="186.1772151899" y="327.747281165"/>
			<point x="356" y="327.747281165" type="curve" smooth="yes"/>
			<point x="382" y="327.747281165"/>
			<point x="393" y="336.747281165"/>
			<point x="393" y="351.747281165" type="curve" smooth="yes"/>
			<point x="393" y="369.747281165"/>
			<point x="379" y="387.747281165"/>
			<point x="349" y="387.747281165" type="curve" smooth="yes"/>
			<point x="259.3188405797" y="387.747281165"/>
			<point x="188" y="383.747281165"/>
			<point x="112" y="371.747281165" type="curve" smooth="yes"/>
			<point x="84" y="366.747281165"/>
			<point x="74" y="349.9180128723"/>
			<point x="74" y="333.747281165" type="curve" smooth="yes"/>
			<point x="74" y="320.0516289911"/>
			<point x="85" y="312.747281165"/>
			<point x="98" y="312.747281165" type="curve" smooth="yes"/>
		</contour>
		<contour>
			<point x="115" y="-294.252718835" type="curve" smooth="yes"/>
			<point x="133" y="-294.252718835"/>
			<point x="142" y="-285.252718835"/>
			<point x="142" y="-252.252718835" type="curve" smooth="yes"/>
			<point x="142" y="28.747281165"/>
			<point x="109" y="184.4151710732"/>
			<point x="109" y="339.747281165" type="curve" smooth="yes"/>
			<point x="109" y="496.747281165"/>
			<point x="127.3224715353" y="616.4512103496"/>
			<point x="263" y="643.747281165" type="curve" smooth="yes"/>
			<point x="287" y="648.747281165"/>
			<point x="297" y="661.747281165"/>
			<point x="297" y="676.747281165" type="curve" smooth="yes"/>
			<point x="297" y="694.747281165"/>
			<point x="275" y="703.747281165"/>
			<point x="259" y="703.747281165" type="curve" smooth="yes"/>
			<point x="138.8461538462" y="703.747281165"/>
			<point x="39" y="589.747281165"/>
			<point x="39" y="382.747281165" type="curve" smooth="yes"/>
			<point x="39" y="139.22714106"/>
			<point x="72" y="43.747281165"/>
			<point x="72" y="-235.252718835" type="curve" smooth="yes"/>
			<point x="72" y="-272.252718835"/>
			<point x="94" y="-294.252718835"/>
		</contour>
	</outline>
</glyph>
<glyph name="m" format="2">
	<unicode hex="006D"/>
	<advance width="867"/>
	<image fileName="b.png" xScale="2.580311745" yScale="2.580311745" xOffset="-2898.3109110762" yOffset="-580.570142633" color="0,0,0,0.24109"/>
	<outline>
		<contour>
			<point x="154" y="141.9060998429" type="curve" smooth="yes"/>
			<point x="154" y="31.9060998429"/>
			<point x="118" y="43.9060998429"/>
			<point x="142" y="126.9060998429" type="curve" smooth="yes"/>
			<point x="175" y="239.9060998429"/>
			<point x="218" y="281.9060998429"/>
			<point x="271" y="281.9060998429" type="curve" smooth="yes"/>
			<point x="341" y="281.9060998429"/>
			<point x="376" y="191.9060998429"/>
			<point x="399" y="55.9060998429" type="curve" smooth="yes"/>
			<point x="411" y="-21.0939001571"/>
			<point x="422" y="-49.0939001571"/>
			<point x="437" y="-69.0939001571" type="curve" smooth="yes"/>
			<point x="462" y="-102.0939001571"/>
			<point x="400" y="-104.0939001571"/>
			<point x="410" y="-65.0939001571" type="curve" smooth="yes"/>
			<point x="461" y="135.9060998429"/>
			<point x="548" y="281.9060998429"/>
			<point x="634" y="281.9060998429" type="curve" smooth="yes"/>
			<point x="708" y="281.9060998429"/>
			<point x="736" y="218.9060998429"/>
			<point x="751" y="83.9060998429" type="curve" smooth="yes"/>
			<point x="768" y="-71.0939001571"/>
			<point x="799" y="-69.0939001571"/>
			<point x="799" y="-106.0939001571" type="curve" smooth="yes"/>
			<point x="799" y="-128.0939001571"/>
			<point x="783" y="-133.0939001571"/>
			<point x="768" y="-133.0939001571" type="curve" smooth="yes"/>
			<point x="730" y="-133.0939001571"/>
			<point x="704" y="-75.0939001571"/>
			<point x="687" y="55.9060998429" type="curve" smooth="yes"/>
			<point x="669.9782962233" y="190.1884296371"/>
			<point x="658.3870265701" y="203.3387869699"/>
			<point x="625" y="226.9060998429" type="curve" smooth="yes"/>
			<point x="600" y="244.9060998429"/>
			<point x="670" y="254.9060998429"/>
			<point x="643" y="232.9060998429" type="curve" smooth="yes"/>
			<point x="553.9974070528" y="162.6929431846"/>
			<point x="513.7061275067" y="48.8660489963"/>
			<point x="466" y="-100.0939001571" type="curve" smooth="yes"/>
			<point x="459" y="-121.0939001571"/>
			<point x="441" y="-133.0939001571"/>
			<point x="423" y="-133.0939001571" type="curve" smooth="yes"/>
			<point x="376" y="-133.0939001571"/>
			<point x="352" y="-67.0939001571"/>
			<point x="334" y="37.9060998429" type="curve" smooth="yes"/>
			<point x="315.925897145" y="141.5943741166"/>
			<point x="299.3545602984" y="198.3130074809"/>
			<point x="254" y="226.9060998429" type="curve" smooth="yes"/>
			<point x="231" y="241.9060998429"/>
			<point x="313" y="240.9060998429"/>
			<point x="281" y="223.9060998429" type="curve" smooth="yes"/>
			<point x="197.6369853752" y="175.2776746451"/>
			<point x="166.6118767509" y="19.3234236974"/>
			<point x="154" y="-97.0939001571" type="curve" smooth="yes"/>
			<point x="151" y="-126.0939001571"/>
			<point x="137" y="-133.0939001571"/>
			<point x="122" y="-133.0939001571" type="curve" smooth="yes"/>
			<point x="93" y="-133.0939001571"/>
			<point x="84" y="-88.0939001571"/>
			<point x="84" y="-41.0939001571" type="curve" smooth="yes"/>
			<point x="84" y="15.9060998429"/>
			<point x="93" y="78.9060998429"/>
			<point x="93" y="135.9060998429" type="curve" smooth="yes"/>
			<point x="93" y="166.9060998429"/>
			<point x="83" y="192.9060998429"/>
			<point x="83" y="219.9060998429" type="curve" smooth="yes"/>
			<point x="83" y="230.9060998429"/>
			<point x="95" y="239.9060998429"/>
			<point x="111" y="239.9060998429" type="curve" smooth="yes"/>
			<point x="144" y="239.9060998429"/>
			<point x="154" y="204.9060998429"/>
		</contour>
	</outline>
</glyph>
<glyph name="u" format="2">
	<unicode hex="0075"/>
	<advance width="579"/>
	<outline>
		<contour>
			<point x="303" y="-188.6373629016" type="curve" smooth="yes"/>
			<point x="410" y="-188.6373629016"/>
			<point x="495" y="-81.2054788436"/>
			<point x="495" y="139.3626370984" type="curve" smooth="yes"/>
			<point x="495" y="243.3626370984"/>
			<point x="475" y="273.3626370984"/>
			<point x="444" y="273.3626370984" type="curve" smooth="yes"/>
			<point x="426" y="273.3626370984"/>
			<point x="421" y="262.3626370984"/>
			<point x="421" y="245.3626370984" type="curve" smooth="yes"/>
			<point x="421" y="210.3626370984"/>
			<point x="428" y="194.3626370984"/>
			<point x="428" y="138.3626370984" type="curve" smooth="yes"/>
			<point x="428" y="-41.9384381704"/>
			<point x="377" y="-123.6373629016"/>
			<point x="291" y="-123.6373629016" type="curve" smooth="yes"/>
			<point x="216" y="-123.6373629016"/>
			<point x="132" y="-14.9243999386"/>
			<point x="132" y="75.3626370984" type="curve" smooth="yes"/>
			<point x="132" y="182.3626370984"/>
			<point x="156" y="192.3626370984"/>
			<point x="156" y="235.3626370984" type="curve" smooth="yes"/>
			<point x="156" y="256.3626370984"/>
			<point x="146" y="270.3626370984"/>
			<point x="127" y="270.3626370984" type="curve" smooth="yes"/>
			<point x="113" y="270.3626370984"/>
			<point x="101" y="261.3626370984"/>
			<point x="97" y="249.3626370984" type="curve" smooth="yes"/>
			<point x="75" y="192.3626370984"/>
			<point x="65" y="137.3626370984"/>
			<point x="65" y="75.3626370984" type="curve" smooth="yes"/>
			<point x="65" y="-35.498572866"/>
			<point x="158" y="-188.6373629016"/>
		</contour>
	</outline>
</glyph>
<glyph name="v" format="2">
	<unicode hex="0076"/>
	<advance width="506"/>
	<outline>
		<contour>
			<point x="209" y="219.5555029452" type="curve" smooth="yes"/>
			<point x="226" y="193.5555029452"/>
			<point x="238" y="182.5555029452"/>
			<point x="255" y="182.5555029452" type="curve" smooth="yes"/>
			<point x="274" y="182.5555029452"/>
			<point x="283" y="191.5555029452"/>
			<point x="294" y="217.5555029452" type="curve" smooth="yes"/>
			<point x="371.585508463" y="399.2968994817"/>
			<point x="382.0218334666" y="512.499688877"/>
			<point x="486" y="643.5555029452" type="curve" smooth="yes"/>
			<point x="493" y="652.5555029452"/>
			<point x="498" y="662.5555029452"/>
			<point x="498" y="674.5555029452" type="curve" smooth="yes"/>
			<point x="498" y="689.5555029452"/>
			<point x="483" y="706.5555029452"/>
			<point x="466" y="706.5555029452" type="curve" smooth="yes"/>
			<point x="449" y="706.5555029452"/>
			<point x="442" y="698.5555029452"/>
			<point x="429" y="683.5555029452" type="curve" smooth="yes"/>
			<point x="338.002481636" y="568.7253012001"/>
			<point x="311.3729413198" y="424.5689048079"/>
			<point x="238" y="256.5555029452" type="curve"/>
			<point x="268" y="259.5555029452" type="line"/>
			<point x="223.5817011476" y="331.7352385803"/>
			<point x="198.2998866774" y="450.5661564793"/>
			<point x="166" y="538.5555029452" type="curve" smooth="yes"/>
			<point x="142" y="601.5555029452"/>
			<point x="123" y="664.5555029452"/>
			<point x="72" y="664.5555029452" type="curve" smooth="yes"/>
			<point x="53" y="664.5555029452"/>
			<point x="43" y="654.5555029452"/>
			<point x="43" y="644.5555029452" type="curve" smooth="yes"/>
			<point x="43" y="610.5555029452"/>
			<point x="70" y="614.5555029452"/>
			<point x="125" y="458.5555029452" type="curve" smooth="yes"/>
			<point x="156.8160206184" y="371.0614462446"/>
			<point x="180.692731089" y="264.2992505787"/>
		</contour>
	</outline>
</glyph>
<glyph name="endash" format="2">
	<unicode hex="2013"/>
	<advance width="700"/>
	<outline>
		<contour>
			<point x="118" y="386.3708107892" type="curve" smooth="yes"/>
			<point x="185.4493927126" y="386.3708107892"/>
			<point x="293.3684210526" y="396.3708107892"/>
			<point x="594" y="396.3708107892" type="curve" smooth="yes"/>
			<point x="626" y="396.3708107892"/>
			<point x="645" y="407.3708107892"/>
			<point x="645" y="425.3708107892" type="curve" smooth="yes"/>
			<point x="645" y="438.3708107892"/>
			<point x="623" y="459.3708107892"/>
			<point x="561" y="459.3708107892" type="curve" smooth="yes"/>
			<point x="402.3551020408" y="459.3708107892"/>
			<point x="252" y="455.3708107892"/>
			<point x="87" y="445.3708107892" type="curve" smooth="yes"/>
			<point x="62" y="443.3708107892"/>
			<point x="55" y="427.3708107892"/>
			<point x="55" y="416.3708107892" type="curve" smooth="yes"/>
			<point x="55" y="401.3708107892"/>
			<point x="77" y="386.3708107892"/>
		</contour>
	</outline>
</glyph>
